<svg xmlns="http://www.w3.org/2000/svg" width="205.864" height="103.526" viewBox="0 0 205.864 103.526">
  <g id="Group_524" data-name="Group 524" transform="translate(0 1.311)">
    <ellipse id="Ellipse_204" data-name="Ellipse 204" cx="99.975" cy="8.091" rx="99.975" ry="8.091" transform="translate(0 86.033)"/>
    <path id="Path_2607" data-name="Path 2607" d="M-977.347,1802.944s21.924,8.4,29.37,9.752,5.983-11.988,15.546-11.361,17.356,18.236.617,22.892c0,0,5.346,19.578-7.325,15.541s-1.9-13.509-17.523-16.515-21.708-3.47-21.708-3.47" transform="translate(1126.569 -1745.484)" fill="#fff" stroke="#000" stroke-miterlimit="10" stroke-width="2.6"/>
    <g id="Group_507" data-name="Group 507" transform="translate(23.514 1.815)">
      <path id="Path_2608" data-name="Path 2608" d="M-1025.7,1784.172c-9.361,22.526-47.322,17.288-59.574,36.2-6.036,9.314-2.611,16.979,2.416,22.36a38.915,38.915,0,0,0,13.518,6.742c36.012,10.632,59.231-12.678,80.815-16.717,23.315-4.365,25.649-.68,24.723-2.645.253-5.22-.646-12.255,1.649-13.41a1.435,1.435,0,0,0,.133-2.353c-6.566-3.707-23.75-16.469-32.3-27.131-7.536-9.4-14.847-23.125-34.375-28.463C-1024.352,1762.934-1020.137,1770.8-1025.7,1784.172Z" transform="translate(1088.485 -1758.754)" fill="#fff" stroke="#000" stroke-linecap="round" stroke-linejoin="round" stroke-width="2.6"/>
    </g>
    <path id="Path_2609" data-name="Path 2609" d="M-1084.7,1820.756c12.253-18.91,50.214-13.672,59.574-36.2,5.56-13.375,1.345-21.238-3-25.418-9.517-2.6-19.082-2.707-27.512,1.668-25.725,13.349-33.989,42.053-33.989,42.053s-10.733,25.759,7.339,40.256C-1087.313,1837.735-1090.737,1830.07-1084.7,1820.756Z" transform="translate(1111.429 -1757.324)" fill="#fff" stroke="#000" stroke-linecap="round" stroke-linejoin="round" stroke-width="2.6"/>
    <path id="Path_2610" data-name="Path 2610" d="M-1067.735,1782.281c-4.6,4.985-9.389,7.791-10.7,6.268s1.347-6.8,5.945-11.784,9.389-7.79,10.7-6.267S-1063.138,1777.3-1067.735,1782.281Z" transform="translate(1113.284 -1753.89)" fill="#fff" stroke="#000" stroke-linecap="round" stroke-linejoin="round" stroke-width="2.6"/>
  </g>
</svg>
