<svg xmlns="http://www.w3.org/2000/svg" width="146.439" height="133.311" viewBox="0 0 146.439 133.311">
  <g id="Group_523" data-name="Group 523" transform="translate(0 0.282)">
    <ellipse id="Ellipse_207" data-name="Ellipse 207" cx="72.57" cy="7.984" rx="72.57" ry="7.984" transform="translate(0 117.06)"/>
    <g id="Group_521" data-name="Group 521" transform="translate(30.692)">
      <g id="Group_520" data-name="Group 520">
        <path id="Path_2621" data-name="Path 2621" d="M-1181.815,1755.594a34.6,34.6,0,0,0-19,5.748,34.6,34.6,0,0,0-19-5.748c-21.111,0-38.225,16.8-38.225,46.995s30.864,52.164,44.739,52.164c4.546,0,8.805-2.1,12.485-5.747,3.678,3.649,7.939,5.747,12.485,5.747,13.874,0,44.738-21.971,44.738-52.164S-1160.7,1755.594-1181.815,1755.594Z" transform="translate(1258.037 -1725.598)" fill="#fff" stroke="#000" stroke-linejoin="round" stroke-width="2.6"/>
        <path id="Path_2622" data-name="Path 2622" d="M-1195.131,1731.643c-4.361,19.591-6.149,35.745-6.149,35.745s-8.778-26.695-54.905-27.326c20.671,37.693,53.387,30.148,53.387,30.148" transform="translate(1258.504 -1731.643)" fill="#fff" stroke="#000" stroke-linejoin="round" stroke-width="2.6"/>
      </g>
      <path id="Path_2623" data-name="Path 2623" d="M-1209.691,1835.1a12.316,12.316,0,0,0,9.015,2.113,20.083,20.083,0,0,0,8.2-3.537,39.4,39.4,0,0,0,3.7-2.893c1.224-1,2.386-2.118,3.528-3.255.575-.572,1.161-1.21,1.74-1.81l1.772-1.777c1.158-1.2,2.309-2.4,3.388-3.631a69.19,69.19,0,0,0,6.113-7.454,40.115,40.115,0,0,0,2.569-3.894c.757-1.343,1.406-2.727,2.044-4.135a32.247,32.247,0,0,0,1.519-4.435,35.679,35.679,0,0,0,1.056-4.761c.64-3.281.845-6.729,1.336-10.283l.495-.071a69.1,69.1,0,0,1,.94,10.38,36.208,36.208,0,0,1-1.465,10.357c-2.016,6.767-6.268,12.574-10.949,17.67-2.376,2.545-4.876,4.959-7.464,7.275a44.569,44.569,0,0,1-8.488,6.114,20.173,20.173,0,0,1-10.1,2.734,12.632,12.632,0,0,1-9.353-4.407Z" transform="translate(1270.138 -1718.105)"/>
    </g>
  </g>
</svg>
