<svg xmlns="http://www.w3.org/2000/svg" width="161.63" height="97.508" viewBox="0 0 161.63 97.508">
  <g id="Group_525" data-name="Group 525" transform="translate(0 1.351)">
    <ellipse id="Ellipse_205" data-name="Ellipse 205" cx="73.54" cy="7.894" rx="73.54" ry="7.894" transform="translate(0 80.37)"/>
    <path id="Path_2611" data-name="Path 2611" d="M-1674.976,1783.608l12.078,39.09,105.012.031,12.492-35.292Z" transform="translate(1697.017 -1735.275)" fill="#fff" stroke="#000" stroke-miterlimit="10" stroke-width="2.6"/>
    <path id="Path_2612" data-name="Path 2612" d="M-1671.656,1799.047c-32.643-2.179,13.878-25.047,13.878-25.047s-3.634-9.866,7.161-14.047,16.882,2.61,27.524-3.122,30.413-9.616,35.375.838,13.661,3.952,21.149,6.424,18.679,14.926,18.679,14.926,27.827,25.353,3.394,24.32C-1568.6,1817.7-1662.266,1819.806-1671.656,1799.047Z" transform="translate(1694.784 -1743.012)" fill="#fff" stroke="#000" stroke-miterlimit="10" stroke-width="2.6"/>
    <path id="Path_2987" data-name="Path 2987" d="M9.457,0c5.227.005,9.468,3.477,9.473,7.754S14.7,15.5,9.473,15.49,0,12.013,0,7.736,4.23-.005,9.457,0Z" transform="translate(80.391 0.754) rotate(-2.282)" stroke="#000" stroke-linecap="round" stroke-width="2.6"/>
    <path id="Path_2613" data-name="Path 2613" d="M-1601.832,1777.83a17.184,17.184,0,0,0-3.588-1.616,1.265,1.265,0,0,0-1.682,1.369,5.486,5.486,0,0,0,2.541,3.508,3.269,3.269,0,0,0,2.472,1.37,2.167,2.167,0,0,0,2.249-1.929C-1599.774,1779.276-1600.84,1778.422-1601.832,1777.83Z" transform="translate(1715.277 -1737.051)"/>
    <path id="Path_2614" data-name="Path 2614" d="M-1634.322,1783.895a12.628,12.628,0,0,0-5.152,2.464,1.069,1.069,0,0,0-.427.99,2.488,2.488,0,0,0,2.049,2.94,3.238,3.238,0,0,0,2.732-1.128c.817-.912.977-2.261,1.834-3.113C-1632.482,1785.25-1632.994,1783.594-1634.322,1783.895Z" transform="translate(1706.443 -1735.216)"/>
    <path id="Path_2615" data-name="Path 2615" d="M-1583.253,1783.921l-3.329-.931a1.3,1.3,0,0,0-1.622.728,1.265,1.265,0,0,0,.2,1.164,1.215,1.215,0,0,0,.729,1.46,4.929,4.929,0,0,0,4.13-.152A1.235,1.235,0,0,0-1583.253,1783.921Z" transform="translate(1720.354 -1735.436)"/>
    <path id="Path_2616" data-name="Path 2616" d="M-1642.153,1766.585l-3.4.586a1.264,1.264,0,0,0-.153.058l-.97.182a1.233,1.233,0,0,0,.1,2.439,11.313,11.313,0,0,0,4.314-.326,1.269,1.269,0,0,0,.793-.607A1.223,1.223,0,0,0-1642.153,1766.585Z" transform="translate(1704.361 -1739.336)"/>
    <path id="Path_2617" data-name="Path 2617" d="M-1617.275,1778.481a1.285,1.285,0,0,0-1.716-.176,1.125,1.125,0,0,0-.891.516,3.955,3.955,0,0,0-.911,3.159,2.476,2.476,0,0,0,2.224,1.927,2.49,2.49,0,0,0,2.436-1.909C-1615.773,1780.679-1616.506,1779.509-1617.275,1778.481Z" transform="translate(1711.579 -1736.597)"/>
    <path id="Path_2618" data-name="Path 2618" d="M-1593.341,1767.373l-2.358.406a1.233,1.233,0,0,0,.438,2.426l2.359-.405A1.233,1.233,0,0,0-1593.341,1767.373Z" transform="translate(1718.084 -1739.148)"/>
    <path id="Path_2619" data-name="Path 2619" d="M-1651.338,1777.462l-1.585.453a1.273,1.273,0,0,0-1.024,1.427,1.271,1.271,0,0,0,1.464,1l.561-.135a1.714,1.714,0,0,0,.18-.077l.844-.242a1.269,1.269,0,0,0,1.024-1.426A1.268,1.268,0,0,0-1651.338,1777.462Z" transform="translate(1702.672 -1736.748)"/>
    <path id="Path_2620" data-name="Path 2620" d="M-1603.152,1787.777a1.243,1.243,0,0,0-1.024,1.427,1.153,1.153,0,0,0,.8.9c.39,1.106,2.349,1.125,2.446-.27A1.934,1.934,0,0,0-1603.152,1787.777Z" transform="translate(1716.068 -1734.283)"/>
  </g>
</svg>
