<svg xmlns="http://www.w3.org/2000/svg" width="153.396" height="148.437" viewBox="0 0 153.396 148.437">
  <g id="Group_526" data-name="Group 526" transform="translate(0.335 1.324)">
    <ellipse id="Ellipse_200" data-name="Ellipse 200" cx="73.54" cy="7.789" rx="73.54" ry="7.789" transform="translate(1.212 131.534)"/>
    <g id="Group_502" data-name="Group 502">
      <line id="Line_110" data-name="Line 110" y1="27.985" x2="8.937" transform="translate(97.714 28.634)" fill="none" stroke="#000" stroke-linejoin="round" stroke-width="2.6"/>
      <path id="Path_2597" data-name="Path 2597" d="M-1395.915,1730.226l88.513,27.025-40.792-27.025Z" transform="translate(1459.162 -1714.624)" fill="#fff" stroke="#000" stroke-linejoin="round" stroke-width="2.6"/>
      <path id="Path_2598" data-name="Path 2598" d="M-1337.512,1767.739c-.282-.146-.906-.414-1.533-.662.051-.167.1-.331.145-.482a8.847,8.847,0,0,0-4.286-10.064c-2.6-1.559-8.062-2.513-11.27-1.271-.263-.555-.514-1.074-.621-1.242a11.879,11.879,0,0,0-4.762-4.371,14.079,14.079,0,0,0-12.722,1.01c-.8.451-4.067,3.078-3.65,3.034-.044,0-4.07-2.089-5.422-2.521-4.749-1.516-9.544-1.139-13.554,1.675a19.655,19.655,0,0,0-3.946,3.9c-.459.566-1.2,2-1.755,2.329-1.264.749-.541.138-1.849.313-5.541.742-9.961-.1-13.69,4.537-1.92,2.391-1.693,7.407-3.729,9.111-4.87,4.078-1.452,9.777,3.493,11.176a7.4,7.4,0,0,0,2.288,3.041c4.195,3.348,11.051,2.976,16.238,2.4,2.955-.326,5.659-.647,8.3-.853,3.55.435,7.094.829,10.616,1,3,.142,6,.213,9,.249a44.7,44.7,0,0,0,8.666-.038c4.134-.078,8.267-.224,12.4-.468a7.67,7.67,0,0,0,6.342-3.5,13.282,13.282,0,0,0,4.208-1.007C-1330.451,1781.621-1329.528,1771.87-1337.512,1767.739Z" transform="translate(1452.002 -1710.558)" fill="#fff" stroke="#000" stroke-linejoin="round" stroke-width="2.6"/>
      <path id="Path_2599" data-name="Path 2599" d="M-1382.387,1846.191c-49.5,0-55.111-12.833-58.381-34.252-3.216-21.076,19.989-42.472,19.989-42.472h97.837s12.261,19.037,13.213,47.881c18.4,15.973,9.836,26.969,0,21.776l2.538,7.067h-75.2l-.635-8.289s-10.154,5.8-15.59,1.487c-8.417-6.679,8.083-20.569,8.083-20.569" transform="translate(1447.007 -1705.92)" fill="#fff" stroke="#000" stroke-linejoin="round" stroke-width="2.6"/>
      <path id="Path_2985" data-name="Path 2985" d="M8.728,0c4.881.035,8.887,6.635,8.948,14.741S13.829,29.389,8.949,29.354.062,22.718,0,14.613,3.847-.035,8.728,0Z" transform="matrix(0.98, -0.198, 0.198, 0.98, 73.842, 87.503)" stroke="#000" stroke-width="2.6"/>
      <path id="Path_2986" data-name="Path 2986" d="M8.728,0c4.881.035,8.887,6.635,8.948,14.741S13.829,29.389,8.949,29.354.062,22.718,0,14.613,3.847-.035,8.728,0Z" transform="matrix(0.98, -0.198, 0.198, 0.98, 105.042, 87.503)" stroke="#000" stroke-width="2.6"/>
      <path id="Path_2600" data-name="Path 2600" d="M-1366.628,1822.851h13.031l-10.445-14.458Z" transform="translate(1467.044 -1697.286)" stroke="#000" stroke-linejoin="round" stroke-width="2.6"/>
      <line id="Line_111" data-name="Line 111" x1="0.901" y1="8.341" transform="translate(77.159 131.93)" stroke="#000" stroke-linejoin="round" stroke-width="2.6"/>
      <line id="Line_112" data-name="Line 112" x1="0.901" y1="8.341" transform="translate(86.857 131.93)" stroke="#000" stroke-linejoin="round" stroke-width="2.6"/>
      <line id="Line_113" data-name="Line 113" x1="0.901" y1="8.341" transform="translate(96.555 131.93)" stroke="#000" stroke-linejoin="round" stroke-width="2.6"/>
      <line id="Line_114" data-name="Line 114" x1="0.901" y1="8.341" transform="translate(106.253 131.93)" stroke="#000" stroke-linejoin="round" stroke-width="2.6"/>
      <line id="Line_115" data-name="Line 115" x1="0.901" y1="8.341" transform="translate(115.951 131.93)" stroke="#000" stroke-linejoin="round" stroke-width="2.6"/>
      <line id="Line_116" data-name="Line 116" x1="0.901" y1="8.341" transform="translate(125.65 131.93)" stroke="#000" stroke-linejoin="round" stroke-width="2.6"/>
      <path id="Path_2601" data-name="Path 2601" d="M-1396.993,1780.932l-9.376-57.386a7.488,7.488,0,0,0-9.4-5.826l-29.982,8.009" transform="translate(1445.749 -1717.456)" fill="none" stroke="#000" stroke-linejoin="round" stroke-width="2.6"/>
      <path id="Path_2602" data-name="Path 2602" d="M-1381.145,1788.77c4.071,0,7.831,3.658,9,13s-1.67,13.005-5.741,13.005" transform="translate(1463.137 -1701.639)" fill="none" stroke="#fff" stroke-linejoin="round" stroke-width="2.6"/>
      <path id="Path_2603" data-name="Path 2603" d="M-1356.335,1788.77c4.072,0,7.832,3.658,9,13s-1.669,13.005-5.742,13.005" transform="translate(1469.815 -1701.639)" fill="none" stroke="#fff" stroke-linejoin="round" stroke-width="2.6"/>
    </g>
  </g>
</svg>
